<mxfile host="app.diagrams.net" modified="2020-12-15T02:44:16.658Z" agent="5.0 (Macintosh; Intel Mac OS X 10_15_6) AppleWebKit/605.1.15 (KHTML, like Gecko) Version/14.0.1 Safari/605.1.15" etag="HA_Mz-txZYkw0R0IDeu-" version="14.0.1" type="github">
  <diagram id="xL5srpVLAC9YZEZNAeOJ" name="Page-1">
    <mxGraphModel dx="3896" dy="2084" grid="1" gridSize="10" guides="1" tooltips="1" connect="1" arrows="1" fold="1" page="1" pageScale="1" pageWidth="1100" pageHeight="850" math="0" shadow="0">
      <root>
        <mxCell id="0" />
        <mxCell id="1" parent="0" />
        <mxCell id="1ccOX2XHWjZUAYnH3V1m-2" value="&lt;div&gt;Members&lt;/div&gt;" style="rounded=0;whiteSpace=wrap;html=1;" parent="1" vertex="1">
          <mxGeometry x="230" y="595" width="100" height="50" as="geometry" />
        </mxCell>
        <mxCell id="1ccOX2XHWjZUAYnH3V1m-3" value="&lt;u&gt;ID&lt;/u&gt;" style="ellipse;whiteSpace=wrap;html=1;" parent="1" vertex="1">
          <mxGeometry x="110" y="540" width="80" height="50" as="geometry" />
        </mxCell>
        <mxCell id="1ccOX2XHWjZUAYnH3V1m-4" value="Password" style="ellipse;whiteSpace=wrap;html=1;" parent="1" vertex="1">
          <mxGeometry x="160" y="490" width="80" height="50" as="geometry" />
        </mxCell>
        <mxCell id="1ccOX2XHWjZUAYnH3V1m-5" value="Adress" style="ellipse;whiteSpace=wrap;html=1;" parent="1" vertex="1">
          <mxGeometry x="70" y="625" width="80" height="50" as="geometry" />
        </mxCell>
        <mxCell id="1ccOX2XHWjZUAYnH3V1m-6" value="Email Adress" style="ellipse;whiteSpace=wrap;html=1;" parent="1" vertex="1">
          <mxGeometry x="410" y="540" width="80" height="50" as="geometry" />
        </mxCell>
        <mxCell id="1ccOX2XHWjZUAYnH3V1m-7" value="" style="endArrow=none;html=1;exitX=0;exitY=1;exitDx=0;exitDy=0;entryX=1;entryY=0.25;entryDx=0;entryDy=0;" parent="1" source="1ccOX2XHWjZUAYnH3V1m-6" target="1ccOX2XHWjZUAYnH3V1m-2" edge="1">
          <mxGeometry width="50" height="50" relative="1" as="geometry">
            <mxPoint x="260" y="635" as="sourcePoint" />
            <mxPoint x="310" y="585" as="targetPoint" />
          </mxGeometry>
        </mxCell>
        <mxCell id="1ccOX2XHWjZUAYnH3V1m-8" value="" style="endArrow=none;html=1;entryX=0;entryY=0.75;entryDx=0;entryDy=0;" parent="1" target="1ccOX2XHWjZUAYnH3V1m-2" edge="1">
          <mxGeometry width="50" height="50" relative="1" as="geometry">
            <mxPoint x="150" y="640" as="sourcePoint" />
            <mxPoint x="305" y="625" as="targetPoint" />
          </mxGeometry>
        </mxCell>
        <mxCell id="1ccOX2XHWjZUAYnH3V1m-9" value="" style="endArrow=none;html=1;exitX=0.25;exitY=0;exitDx=0;exitDy=0;entryX=0.5;entryY=1;entryDx=0;entryDy=0;" parent="1" source="1ccOX2XHWjZUAYnH3V1m-2" target="1ccOX2XHWjZUAYnH3V1m-4" edge="1">
          <mxGeometry width="50" height="50" relative="1" as="geometry">
            <mxPoint x="351.7157287525381" y="672.3223304703363" as="sourcePoint" />
            <mxPoint x="335" y="655" as="targetPoint" />
          </mxGeometry>
        </mxCell>
        <mxCell id="1ccOX2XHWjZUAYnH3V1m-10" value="" style="endArrow=none;html=1;exitX=0;exitY=0;exitDx=0;exitDy=0;entryX=1;entryY=1;entryDx=0;entryDy=0;" parent="1" source="1ccOX2XHWjZUAYnH3V1m-2" target="1ccOX2XHWjZUAYnH3V1m-3" edge="1">
          <mxGeometry width="50" height="50" relative="1" as="geometry">
            <mxPoint x="351.7157287525381" y="582.3223304703363" as="sourcePoint" />
            <mxPoint x="335" y="565" as="targetPoint" />
          </mxGeometry>
        </mxCell>
        <mxCell id="1ccOX2XHWjZUAYnH3V1m-11" value="Has" style="rhombus;whiteSpace=wrap;html=1;" parent="1" vertex="1">
          <mxGeometry x="245" y="780" width="70" height="70" as="geometry" />
        </mxCell>
        <mxCell id="1ccOX2XHWjZUAYnH3V1m-12" value="Connections" style="rounded=0;whiteSpace=wrap;html=1;" parent="1" vertex="1">
          <mxGeometry x="230" y="940" width="100" height="50" as="geometry" />
        </mxCell>
        <mxCell id="1ccOX2XHWjZUAYnH3V1m-13" value="" style="endArrow=none;html=1;exitX=0.5;exitY=1;exitDx=0;exitDy=0;entryX=0.5;entryY=0;entryDx=0;entryDy=0;" parent="1" source="1ccOX2XHWjZUAYnH3V1m-2" target="1ccOX2XHWjZUAYnH3V1m-11" edge="1">
          <mxGeometry width="50" height="50" relative="1" as="geometry">
            <mxPoint x="160" y="510" as="sourcePoint" />
            <mxPoint x="230" y="510" as="targetPoint" />
          </mxGeometry>
        </mxCell>
        <mxCell id="1ccOX2XHWjZUAYnH3V1m-14" value="" style="endArrow=none;html=1;exitX=0.5;exitY=0;exitDx=0;exitDy=0;entryX=0.5;entryY=1;entryDx=0;entryDy=0;" parent="1" source="1ccOX2XHWjZUAYnH3V1m-12" target="1ccOX2XHWjZUAYnH3V1m-11" edge="1">
          <mxGeometry width="50" height="50" relative="1" as="geometry">
            <mxPoint x="335" y="775" as="sourcePoint" />
            <mxPoint x="280" y="890" as="targetPoint" />
          </mxGeometry>
        </mxCell>
        <mxCell id="1ccOX2XHWjZUAYnH3V1m-15" value="First Name" style="ellipse;whiteSpace=wrap;html=1;" parent="1" vertex="1">
          <mxGeometry x="290" y="470" width="80" height="50" as="geometry" />
        </mxCell>
        <mxCell id="1ccOX2XHWjZUAYnH3V1m-16" value="Last Name" style="ellipse;whiteSpace=wrap;html=1;" parent="1" vertex="1">
          <mxGeometry x="370" y="495" width="80" height="50" as="geometry" />
        </mxCell>
        <mxCell id="1ccOX2XHWjZUAYnH3V1m-17" value="" style="endArrow=none;html=1;exitX=0;exitY=1;exitDx=0;exitDy=0;entryX=0.75;entryY=0;entryDx=0;entryDy=0;" parent="1" source="1ccOX2XHWjZUAYnH3V1m-15" target="1ccOX2XHWjZUAYnH3V1m-2" edge="1">
          <mxGeometry width="50" height="50" relative="1" as="geometry">
            <mxPoint x="341.7157287525381" y="547.6776695296637" as="sourcePoint" />
            <mxPoint x="370" y="505" as="targetPoint" />
          </mxGeometry>
        </mxCell>
        <mxCell id="1ccOX2XHWjZUAYnH3V1m-18" value="" style="endArrow=none;html=1;exitX=0;exitY=0.5;exitDx=0;exitDy=0;entryX=1;entryY=0;entryDx=0;entryDy=0;" parent="1" source="1ccOX2XHWjZUAYnH3V1m-16" target="1ccOX2XHWjZUAYnH3V1m-2" edge="1">
          <mxGeometry width="50" height="50" relative="1" as="geometry">
            <mxPoint x="351.7157287525381" y="557.6776695296637" as="sourcePoint" />
            <mxPoint x="360" y="545" as="targetPoint" />
          </mxGeometry>
        </mxCell>
        <mxCell id="1ccOX2XHWjZUAYnH3V1m-19" value="&lt;u&gt;ID&lt;/u&gt;" style="ellipse;whiteSpace=wrap;html=1;" parent="1" vertex="1">
          <mxGeometry x="140" y="880" width="80" height="50" as="geometry" />
        </mxCell>
        <mxCell id="1ccOX2XHWjZUAYnH3V1m-20" value="" style="endArrow=none;html=1;exitX=0;exitY=0;exitDx=0;exitDy=0;entryX=1;entryY=1;entryDx=0;entryDy=0;" parent="1" source="1ccOX2XHWjZUAYnH3V1m-12" target="1ccOX2XHWjZUAYnH3V1m-19" edge="1">
          <mxGeometry width="50" height="50" relative="1" as="geometry">
            <mxPoint x="230" y="940" as="sourcePoint" />
            <mxPoint x="335" y="930" as="targetPoint" />
          </mxGeometry>
        </mxCell>
        <mxCell id="1ccOX2XHWjZUAYnH3V1m-21" value="&lt;div&gt;Role code (FK)&lt;br&gt;&lt;/div&gt;" style="ellipse;whiteSpace=wrap;html=1;" parent="1" vertex="1">
          <mxGeometry x="120" y="940" width="80" height="50" as="geometry" />
        </mxCell>
        <mxCell id="1ccOX2XHWjZUAYnH3V1m-22" value="Has" style="rhombus;whiteSpace=wrap;html=1;" parent="1" vertex="1">
          <mxGeometry x="380" y="930" width="70" height="70" as="geometry" />
        </mxCell>
        <mxCell id="1ccOX2XHWjZUAYnH3V1m-23" value="" style="endArrow=none;html=1;exitX=1;exitY=0.5;exitDx=0;exitDy=0;entryX=0;entryY=0.5;entryDx=0;entryDy=0;" parent="1" source="1ccOX2XHWjZUAYnH3V1m-12" target="1ccOX2XHWjZUAYnH3V1m-22" edge="1">
          <mxGeometry width="50" height="50" relative="1" as="geometry">
            <mxPoint x="280" y="940" as="sourcePoint" />
            <mxPoint x="280" y="890" as="targetPoint" />
          </mxGeometry>
        </mxCell>
        <mxCell id="1ccOX2XHWjZUAYnH3V1m-24" value="Role" style="rounded=0;whiteSpace=wrap;html=1;" parent="1" vertex="1">
          <mxGeometry x="500" y="940" width="100" height="50" as="geometry" />
        </mxCell>
        <mxCell id="1ccOX2XHWjZUAYnH3V1m-25" value="" style="endArrow=none;html=1;exitX=1;exitY=0.5;exitDx=0;exitDy=0;entryX=0;entryY=0.5;entryDx=0;entryDy=0;" parent="1" source="1ccOX2XHWjZUAYnH3V1m-22" target="1ccOX2XHWjZUAYnH3V1m-24" edge="1">
          <mxGeometry width="50" height="50" relative="1" as="geometry">
            <mxPoint x="330" y="965" as="sourcePoint" />
            <mxPoint x="380" y="965" as="targetPoint" />
          </mxGeometry>
        </mxCell>
        <mxCell id="1ccOX2XHWjZUAYnH3V1m-26" value="&lt;div&gt;&lt;u&gt;Role code&lt;/u&gt;&lt;br&gt;&lt;/div&gt;" style="ellipse;whiteSpace=wrap;html=1;" parent="1" vertex="1">
          <mxGeometry x="480" y="850" width="80" height="50" as="geometry" />
        </mxCell>
        <mxCell id="1ccOX2XHWjZUAYnH3V1m-27" value="Role description" style="ellipse;whiteSpace=wrap;html=1;" parent="1" vertex="1">
          <mxGeometry x="590" y="860" width="80" height="50" as="geometry" />
        </mxCell>
        <mxCell id="1ccOX2XHWjZUAYnH3V1m-28" value="" style="endArrow=none;html=1;exitX=1;exitY=1;exitDx=0;exitDy=0;entryX=0.5;entryY=0;entryDx=0;entryDy=0;" parent="1" target="1ccOX2XHWjZUAYnH3V1m-24" edge="1">
          <mxGeometry width="50" height="50" relative="1" as="geometry">
            <mxPoint x="528.2842712474619" y="902.6776695296637" as="sourcePoint" />
            <mxPoint x="500" y="965" as="targetPoint" />
          </mxGeometry>
        </mxCell>
        <mxCell id="1ccOX2XHWjZUAYnH3V1m-29" value="" style="endArrow=none;html=1;exitX=1;exitY=0;exitDx=0;exitDy=0;entryX=0.5;entryY=1;entryDx=0;entryDy=0;" parent="1" source="1ccOX2XHWjZUAYnH3V1m-24" edge="1">
          <mxGeometry width="50" height="50" relative="1" as="geometry">
            <mxPoint x="460" y="975" as="sourcePoint" />
            <mxPoint x="610" y="910" as="targetPoint" />
          </mxGeometry>
        </mxCell>
        <mxCell id="1ccOX2XHWjZUAYnH3V1m-30" value="Groups" style="rounded=0;whiteSpace=wrap;html=1;" parent="1" vertex="1">
          <mxGeometry x="672.5" y="625" width="100" height="50" as="geometry" />
        </mxCell>
        <mxCell id="1ccOX2XHWjZUAYnH3V1m-31" value="&lt;div&gt;owner&lt;/div&gt;&lt;div&gt;ID&lt;/div&gt;" style="ellipse;whiteSpace=wrap;html=1;" parent="1" vertex="1">
          <mxGeometry x="610" y="550" width="80" height="50" as="geometry" />
        </mxCell>
        <mxCell id="1ccOX2XHWjZUAYnH3V1m-32" value="Description" style="ellipse;whiteSpace=wrap;html=1;" parent="1" vertex="1">
          <mxGeometry x="752.5" y="530" width="80" height="50" as="geometry" />
        </mxCell>
        <mxCell id="1ccOX2XHWjZUAYnH3V1m-33" value="GroupID" style="ellipse;whiteSpace=wrap;html=1;" parent="1" vertex="1">
          <mxGeometry x="832.5" y="585" width="80" height="50" as="geometry" />
        </mxCell>
        <mxCell id="1ccOX2XHWjZUAYnH3V1m-34" value="Has" style="rhombus;whiteSpace=wrap;html=1;" parent="1" vertex="1">
          <mxGeometry x="480" y="615" width="70" height="70" as="geometry" />
        </mxCell>
        <mxCell id="1ccOX2XHWjZUAYnH3V1m-35" value="" style="endArrow=none;html=1;entryX=0;entryY=0.5;entryDx=0;entryDy=0;exitX=1;exitY=0.5;exitDx=0;exitDy=0;" parent="1" source="1ccOX2XHWjZUAYnH3V1m-34" target="1ccOX2XHWjZUAYnH3V1m-30" edge="1">
          <mxGeometry width="50" height="50" relative="1" as="geometry">
            <mxPoint x="630" y="660" as="sourcePoint" />
            <mxPoint x="330" y="745" as="targetPoint" />
          </mxGeometry>
        </mxCell>
        <mxCell id="1ccOX2XHWjZUAYnH3V1m-36" value="" style="endArrow=none;html=1;exitX=1;exitY=0.75;exitDx=0;exitDy=0;entryX=0;entryY=0.5;entryDx=0;entryDy=0;" parent="1" source="1ccOX2XHWjZUAYnH3V1m-2" target="1ccOX2XHWjZUAYnH3V1m-34" edge="1">
          <mxGeometry width="50" height="50" relative="1" as="geometry">
            <mxPoint x="290" y="635" as="sourcePoint" />
            <mxPoint x="290" y="705" as="targetPoint" />
            <Array as="points" />
          </mxGeometry>
        </mxCell>
        <mxCell id="1ccOX2XHWjZUAYnH3V1m-37" value="" style="endArrow=none;html=1;exitX=0.5;exitY=1;exitDx=0;exitDy=0;entryX=0.25;entryY=0;entryDx=0;entryDy=0;" parent="1" source="1ccOX2XHWjZUAYnH3V1m-31" target="1ccOX2XHWjZUAYnH3V1m-30" edge="1">
          <mxGeometry width="50" height="50" relative="1" as="geometry">
            <mxPoint x="667.5" y="555" as="sourcePoint" />
            <mxPoint x="672.5" y="595" as="targetPoint" />
          </mxGeometry>
        </mxCell>
        <mxCell id="1ccOX2XHWjZUAYnH3V1m-38" value="" style="endArrow=none;html=1;exitX=0.75;exitY=0;exitDx=0;exitDy=0;" parent="1" source="1ccOX2XHWjZUAYnH3V1m-30" edge="1" target="1ccOX2XHWjZUAYnH3V1m-32">
          <mxGeometry width="50" height="50" relative="1" as="geometry">
            <mxPoint x="32.5" y="845" as="sourcePoint" />
            <mxPoint x="812.5" y="585" as="targetPoint" />
          </mxGeometry>
        </mxCell>
        <mxCell id="1ccOX2XHWjZUAYnH3V1m-39" value="" style="endArrow=none;html=1;exitX=1;exitY=0.25;exitDx=0;exitDy=0;entryX=0;entryY=1;entryDx=0;entryDy=0;" parent="1" source="1ccOX2XHWjZUAYnH3V1m-30" target="1ccOX2XHWjZUAYnH3V1m-33" edge="1">
          <mxGeometry width="50" height="50" relative="1" as="geometry">
            <mxPoint x="42.5" y="855" as="sourcePoint" />
            <mxPoint x="42.5" y="925" as="targetPoint" />
          </mxGeometry>
        </mxCell>
        <mxCell id="1ccOX2XHWjZUAYnH3V1m-40" value="posts" style="rounded=0;whiteSpace=wrap;html=1;" parent="1" vertex="1">
          <mxGeometry x="655" y="175" width="100" height="50" as="geometry" />
        </mxCell>
        <mxCell id="1ccOX2XHWjZUAYnH3V1m-41" value="&lt;u&gt;id&lt;/u&gt;" style="ellipse;whiteSpace=wrap;html=1;" parent="1" vertex="1">
          <mxGeometry x="615" y="85" width="80" height="50" as="geometry" />
        </mxCell>
        <mxCell id="1ccOX2XHWjZUAYnH3V1m-42" value="username" style="ellipse;whiteSpace=wrap;html=1;" parent="1" vertex="1">
          <mxGeometry x="725" y="95" width="80" height="50" as="geometry" />
        </mxCell>
        <mxCell id="1ccOX2XHWjZUAYnH3V1m-43" value="body" style="ellipse;whiteSpace=wrap;html=1;" parent="1" vertex="1">
          <mxGeometry x="825" y="145" width="80" height="50" as="geometry" />
        </mxCell>
        <mxCell id="1ccOX2XHWjZUAYnH3V1m-44" value="date_added" style="ellipse;whiteSpace=wrap;html=1;" parent="1" vertex="1">
          <mxGeometry x="772" y="225" width="80" height="50" as="geometry" />
        </mxCell>
        <mxCell id="1ccOX2XHWjZUAYnH3V1m-45" value="hashtags" style="ellipse;whiteSpace=wrap;html=1;" parent="1" vertex="1">
          <mxGeometry x="540" y="115" width="80" height="50" as="geometry" />
        </mxCell>
        <mxCell id="1ccOX2XHWjZUAYnH3V1m-46" value="" style="endArrow=none;html=1;" parent="1" source="1ccOX2XHWjZUAYnH3V1m-40" target="1ccOX2XHWjZUAYnH3V1m-44" edge="1">
          <mxGeometry width="50" height="50" relative="1" as="geometry">
            <mxPoint x="935" y="410" as="sourcePoint" />
            <mxPoint x="940" y="450" as="targetPoint" />
          </mxGeometry>
        </mxCell>
        <mxCell id="1ccOX2XHWjZUAYnH3V1m-47" value="" style="endArrow=none;html=1;exitX=0;exitY=1;exitDx=0;exitDy=0;entryX=0.75;entryY=0;entryDx=0;entryDy=0;" parent="1" source="1ccOX2XHWjZUAYnH3V1m-42" target="1ccOX2XHWjZUAYnH3V1m-40" edge="1">
          <mxGeometry width="50" height="50" relative="1" as="geometry">
            <mxPoint x="945" y="420" as="sourcePoint" />
            <mxPoint x="950" y="460" as="targetPoint" />
          </mxGeometry>
        </mxCell>
        <mxCell id="1ccOX2XHWjZUAYnH3V1m-48" value="" style="endArrow=none;html=1;exitX=0;exitY=0.5;exitDx=0;exitDy=0;entryX=1;entryY=0.25;entryDx=0;entryDy=0;" parent="1" source="1ccOX2XHWjZUAYnH3V1m-43" target="1ccOX2XHWjZUAYnH3V1m-40" edge="1">
          <mxGeometry width="50" height="50" relative="1" as="geometry">
            <mxPoint x="955" y="430" as="sourcePoint" />
            <mxPoint x="960" y="470" as="targetPoint" />
          </mxGeometry>
        </mxCell>
        <mxCell id="1ccOX2XHWjZUAYnH3V1m-49" value="" style="endArrow=none;html=1;exitX=0.5;exitY=1;exitDx=0;exitDy=0;entryX=0.25;entryY=0;entryDx=0;entryDy=0;" parent="1" source="1ccOX2XHWjZUAYnH3V1m-41" target="1ccOX2XHWjZUAYnH3V1m-40" edge="1">
          <mxGeometry width="50" height="50" relative="1" as="geometry">
            <mxPoint x="965" y="440" as="sourcePoint" />
            <mxPoint x="970" y="480" as="targetPoint" />
          </mxGeometry>
        </mxCell>
        <mxCell id="1ccOX2XHWjZUAYnH3V1m-50" value="" style="endArrow=none;html=1;exitX=1;exitY=1;exitDx=0;exitDy=0;entryX=0;entryY=0.25;entryDx=0;entryDy=0;" parent="1" source="1ccOX2XHWjZUAYnH3V1m-45" target="1ccOX2XHWjZUAYnH3V1m-40" edge="1">
          <mxGeometry width="50" height="50" relative="1" as="geometry">
            <mxPoint x="975" y="450" as="sourcePoint" />
            <mxPoint x="980" y="490" as="targetPoint" />
          </mxGeometry>
        </mxCell>
        <mxCell id="1ccOX2XHWjZUAYnH3V1m-51" value="Has" style="rhombus;whiteSpace=wrap;html=1;" parent="1" vertex="1">
          <mxGeometry x="245" y="185" width="70" height="70" as="geometry" />
        </mxCell>
        <mxCell id="1ccOX2XHWjZUAYnH3V1m-55" value="" style="endArrow=none;html=1;exitX=1;exitY=0.5;exitDx=0;exitDy=0;entryX=0;entryY=0.75;entryDx=0;entryDy=0;" parent="1" source="1ccOX2XHWjZUAYnH3V1m-51" target="1ccOX2XHWjZUAYnH3V1m-40" edge="1">
          <mxGeometry width="50" height="50" relative="1" as="geometry">
            <mxPoint x="770" y="505" as="sourcePoint" />
            <mxPoint x="860" y="505" as="targetPoint" />
          </mxGeometry>
        </mxCell>
        <mxCell id="1ccOX2XHWjZUAYnH3V1m-61" value="" style="endArrow=none;html=1;exitX=1;exitY=0.5;exitDx=0;exitDy=0;entryX=0;entryY=0.5;entryDx=0;entryDy=0;" parent="1" source="1ccOX2XHWjZUAYnH3V1m-21" target="1ccOX2XHWjZUAYnH3V1m-12" edge="1">
          <mxGeometry width="50" height="50" relative="1" as="geometry">
            <mxPoint x="230" y="940" as="sourcePoint" />
            <mxPoint x="208.45113572692344" y="922.5727603019234" as="targetPoint" />
          </mxGeometry>
        </mxCell>
        <mxCell id="1ccOX2XHWjZUAYnH3V1m-68" value="Status (active/in)" style="ellipse;whiteSpace=wrap;html=1;" parent="1" vertex="1">
          <mxGeometry x="310" y="675" width="80" height="50" as="geometry" />
        </mxCell>
        <mxCell id="1ccOX2XHWjZUAYnH3V1m-69" value="" style="endArrow=none;html=1;" parent="1" source="1ccOX2XHWjZUAYnH3V1m-2" target="1ccOX2XHWjZUAYnH3V1m-68" edge="1">
          <mxGeometry width="50" height="50" relative="1" as="geometry">
            <mxPoint x="255" y="625" as="sourcePoint" />
            <mxPoint x="248.4511357269089" y="652.4272396980859" as="targetPoint" />
          </mxGeometry>
        </mxCell>
        <mxCell id="1ccOX2XHWjZUAYnH3V1m-71" value="" style="endArrow=none;html=1;" parent="1" source="1ccOX2XHWjZUAYnH3V1m-30" edge="1">
          <mxGeometry width="50" height="50" relative="1" as="geometry">
            <mxPoint x="792.5" y="637.5" as="sourcePoint" />
            <mxPoint x="836.4390777012768" y="684.181723310383" as="targetPoint" />
          </mxGeometry>
        </mxCell>
        <mxCell id="nLVdZMVvbaVivxbuiK4V-9" value="AdminRights" style="ellipse;whiteSpace=wrap;html=1;" parent="1" vertex="1">
          <mxGeometry x="150" y="685" width="80" height="50" as="geometry" />
        </mxCell>
        <mxCell id="nLVdZMVvbaVivxbuiK4V-10" value="" style="endArrow=none;html=1;" parent="1" target="nLVdZMVvbaVivxbuiK4V-9" edge="1">
          <mxGeometry width="50" height="50" relative="1" as="geometry">
            <mxPoint x="252.14285714285688" y="645" as="sourcePoint" />
            <mxPoint x="353.90429778974294" y="655.9593990623152" as="targetPoint" />
          </mxGeometry>
        </mxCell>
        <mxCell id="nLVdZMVvbaVivxbuiK4V-25" value="MemberID" style="ellipse;whiteSpace=wrap;html=1;" parent="1" vertex="1">
          <mxGeometry x="832.5" y="660" width="80" height="50" as="geometry" />
        </mxCell>
        <mxCell id="nLVdZMVvbaVivxbuiK4V-26" value="GroupID" style="ellipse;whiteSpace=wrap;html=1;" parent="1" vertex="1">
          <mxGeometry x="832.5" y="585" width="80" height="50" as="geometry" />
        </mxCell>
        <mxCell id="nLVdZMVvbaVivxbuiK4V-33" value="" style="endArrow=none;html=1;entryX=0.5;entryY=1;entryDx=0;entryDy=0;exitX=0.5;exitY=0;exitDx=0;exitDy=0;" parent="1" source="1ccOX2XHWjZUAYnH3V1m-2" target="1ccOX2XHWjZUAYnH3V1m-51" edge="1">
          <mxGeometry width="50" height="50" relative="1" as="geometry">
            <mxPoint x="420" y="570" as="sourcePoint" />
            <mxPoint x="470" y="520" as="targetPoint" />
          </mxGeometry>
        </mxCell>
        <mxCell id="XBvXJC9JR48eEQxPriN3-1" value="GroupName" style="ellipse;whiteSpace=wrap;html=1;" vertex="1" parent="1">
          <mxGeometry x="852.5" y="495" width="90" height="60" as="geometry" />
        </mxCell>
        <mxCell id="XBvXJC9JR48eEQxPriN3-2" value="" style="endArrow=none;html=1;exitX=1;exitY=0;exitDx=0;exitDy=0;entryX=0;entryY=1;entryDx=0;entryDy=0;" edge="1" parent="1" source="1ccOX2XHWjZUAYnH3V1m-30" target="XBvXJC9JR48eEQxPriN3-1">
          <mxGeometry width="50" height="50" relative="1" as="geometry">
            <mxPoint x="782.5" y="647.5" as="sourcePoint" />
            <mxPoint x="854.2157287525381" y="637.6776695296637" as="targetPoint" />
          </mxGeometry>
        </mxCell>
        <mxCell id="XBvXJC9JR48eEQxPriN3-3" value="pm" style="whiteSpace=wrap;html=1;" vertex="1" parent="1">
          <mxGeometry x="-300" y="365" width="120" height="60" as="geometry" />
        </mxCell>
        <mxCell id="XBvXJC9JR48eEQxPriN3-4" value="has" style="rhombus;whiteSpace=wrap;html=1;" vertex="1" parent="1">
          <mxGeometry x="-120" y="540" width="80" height="80" as="geometry" />
        </mxCell>
        <mxCell id="XBvXJC9JR48eEQxPriN3-5" value="" style="endArrow=none;html=1;exitX=0;exitY=0.25;exitDx=0;exitDy=0;entryX=1;entryY=0.5;entryDx=0;entryDy=0;" edge="1" parent="1" source="1ccOX2XHWjZUAYnH3V1m-2" target="XBvXJC9JR48eEQxPriN3-4">
          <mxGeometry width="50" height="50" relative="1" as="geometry">
            <mxPoint x="115" y="435" as="sourcePoint" />
            <mxPoint x="60" y="380" as="targetPoint" />
          </mxGeometry>
        </mxCell>
        <mxCell id="XBvXJC9JR48eEQxPriN3-6" value="" style="endArrow=none;html=1;exitX=0;exitY=0;exitDx=0;exitDy=0;entryX=0.5;entryY=1;entryDx=0;entryDy=0;" edge="1" parent="1" source="XBvXJC9JR48eEQxPriN3-4" target="XBvXJC9JR48eEQxPriN3-3">
          <mxGeometry width="50" height="50" relative="1" as="geometry">
            <mxPoint x="-240" y="540" as="sourcePoint" />
            <mxPoint x="-220" y="270" as="targetPoint" />
          </mxGeometry>
        </mxCell>
        <mxCell id="XBvXJC9JR48eEQxPriN3-7" value="time_sent" style="ellipse;whiteSpace=wrap;html=1;" vertex="1" parent="1">
          <mxGeometry x="-120" y="220" width="100" height="60" as="geometry" />
        </mxCell>
        <mxCell id="XBvXJC9JR48eEQxPriN3-8" value="from_ID" style="ellipse;whiteSpace=wrap;html=1;" vertex="1" parent="1">
          <mxGeometry x="-60" y="290" width="100" height="60" as="geometry" />
        </mxCell>
        <mxCell id="XBvXJC9JR48eEQxPriN3-9" value="to_ID" style="ellipse;whiteSpace=wrap;html=1;" vertex="1" parent="1">
          <mxGeometry x="-90" y="365" width="100" height="60" as="geometry" />
        </mxCell>
        <mxCell id="XBvXJC9JR48eEQxPriN3-10" value="subject" style="ellipse;whiteSpace=wrap;html=1;" vertex="1" parent="1">
          <mxGeometry x="-240" y="210" width="100" height="60" as="geometry" />
        </mxCell>
        <mxCell id="XBvXJC9JR48eEQxPriN3-11" value="&lt;u&gt;mID&lt;/u&gt;" style="ellipse;whiteSpace=wrap;html=1;" vertex="1" parent="1">
          <mxGeometry x="-170" y="435" width="100" height="60" as="geometry" />
        </mxCell>
        <mxCell id="XBvXJC9JR48eEQxPriN3-12" value="from_delete" style="ellipse;whiteSpace=wrap;html=1;" vertex="1" parent="1">
          <mxGeometry x="-410" y="450" width="100" height="60" as="geometry" />
        </mxCell>
        <mxCell id="XBvXJC9JR48eEQxPriN3-13" value="message" style="ellipse;whiteSpace=wrap;html=1;" vertex="1" parent="1">
          <mxGeometry x="-350" y="210" width="100" height="60" as="geometry" />
        </mxCell>
        <mxCell id="XBvXJC9JR48eEQxPriN3-14" value="opened" style="ellipse;whiteSpace=wrap;html=1;" vertex="1" parent="1">
          <mxGeometry x="-450" y="275" width="100" height="60" as="geometry" />
        </mxCell>
        <mxCell id="XBvXJC9JR48eEQxPriN3-15" value="to_delete" style="ellipse;whiteSpace=wrap;html=1;" vertex="1" parent="1">
          <mxGeometry x="-470" y="365" width="100" height="60" as="geometry" />
        </mxCell>
        <mxCell id="XBvXJC9JR48eEQxPriN3-17" value="" style="endArrow=none;html=1;exitX=0.25;exitY=0;exitDx=0;exitDy=0;entryX=0.5;entryY=1;entryDx=0;entryDy=0;" edge="1" parent="1" source="XBvXJC9JR48eEQxPriN3-3" target="XBvXJC9JR48eEQxPriN3-13">
          <mxGeometry width="50" height="50" relative="1" as="geometry">
            <mxPoint x="-230" y="550" as="sourcePoint" />
            <mxPoint x="-230" y="435" as="targetPoint" />
          </mxGeometry>
        </mxCell>
        <mxCell id="XBvXJC9JR48eEQxPriN3-18" value="" style="endArrow=none;html=1;exitX=1;exitY=1;exitDx=0;exitDy=0;entryX=0;entryY=0;entryDx=0;entryDy=0;" edge="1" parent="1" source="XBvXJC9JR48eEQxPriN3-14" target="XBvXJC9JR48eEQxPriN3-3">
          <mxGeometry width="50" height="50" relative="1" as="geometry">
            <mxPoint x="-220" y="560" as="sourcePoint" />
            <mxPoint x="-220" y="445" as="targetPoint" />
          </mxGeometry>
        </mxCell>
        <mxCell id="XBvXJC9JR48eEQxPriN3-19" value="" style="endArrow=none;html=1;exitX=1;exitY=0.5;exitDx=0;exitDy=0;entryX=0;entryY=0.5;entryDx=0;entryDy=0;" edge="1" parent="1" source="XBvXJC9JR48eEQxPriN3-15" target="XBvXJC9JR48eEQxPriN3-3">
          <mxGeometry width="50" height="50" relative="1" as="geometry">
            <mxPoint x="-210" y="570" as="sourcePoint" />
            <mxPoint x="-210" y="455" as="targetPoint" />
          </mxGeometry>
        </mxCell>
        <mxCell id="XBvXJC9JR48eEQxPriN3-20" value="" style="endArrow=none;html=1;exitX=1;exitY=0;exitDx=0;exitDy=0;entryX=0;entryY=1;entryDx=0;entryDy=0;" edge="1" parent="1" source="XBvXJC9JR48eEQxPriN3-12" target="XBvXJC9JR48eEQxPriN3-3">
          <mxGeometry width="50" height="50" relative="1" as="geometry">
            <mxPoint x="-200" y="580" as="sourcePoint" />
            <mxPoint x="-200" y="465" as="targetPoint" />
          </mxGeometry>
        </mxCell>
        <mxCell id="XBvXJC9JR48eEQxPriN3-21" value="" style="endArrow=none;html=1;exitX=1;exitY=1;exitDx=0;exitDy=0;entryX=0;entryY=0;entryDx=0;entryDy=0;" edge="1" parent="1" source="XBvXJC9JR48eEQxPriN3-3" target="XBvXJC9JR48eEQxPriN3-11">
          <mxGeometry width="50" height="50" relative="1" as="geometry">
            <mxPoint x="-190" y="590" as="sourcePoint" />
            <mxPoint x="-190" y="475" as="targetPoint" />
          </mxGeometry>
        </mxCell>
        <mxCell id="XBvXJC9JR48eEQxPriN3-22" value="" style="endArrow=none;html=1;exitX=1;exitY=0.5;exitDx=0;exitDy=0;entryX=0;entryY=0.5;entryDx=0;entryDy=0;" edge="1" parent="1" source="XBvXJC9JR48eEQxPriN3-3" target="XBvXJC9JR48eEQxPriN3-9">
          <mxGeometry width="50" height="50" relative="1" as="geometry">
            <mxPoint x="-180" y="600" as="sourcePoint" />
            <mxPoint x="-180" y="485" as="targetPoint" />
          </mxGeometry>
        </mxCell>
        <mxCell id="XBvXJC9JR48eEQxPriN3-23" value="" style="endArrow=none;html=1;exitX=1.008;exitY=0.367;exitDx=0;exitDy=0;entryX=0;entryY=0.5;entryDx=0;entryDy=0;exitPerimeter=0;" edge="1" parent="1" source="XBvXJC9JR48eEQxPriN3-3" target="XBvXJC9JR48eEQxPriN3-8">
          <mxGeometry width="50" height="50" relative="1" as="geometry">
            <mxPoint x="-170" y="610" as="sourcePoint" />
            <mxPoint x="-170" y="495" as="targetPoint" />
          </mxGeometry>
        </mxCell>
        <mxCell id="XBvXJC9JR48eEQxPriN3-24" value="" style="endArrow=none;html=1;entryX=0;entryY=1;entryDx=0;entryDy=0;" edge="1" parent="1" source="XBvXJC9JR48eEQxPriN3-3" target="XBvXJC9JR48eEQxPriN3-7">
          <mxGeometry width="50" height="50" relative="1" as="geometry">
            <mxPoint x="-160" y="620" as="sourcePoint" />
            <mxPoint x="-160" y="505" as="targetPoint" />
          </mxGeometry>
        </mxCell>
        <mxCell id="XBvXJC9JR48eEQxPriN3-25" value="" style="endArrow=none;html=1;exitX=0.5;exitY=0;exitDx=0;exitDy=0;entryX=0.5;entryY=1;entryDx=0;entryDy=0;" edge="1" parent="1" source="XBvXJC9JR48eEQxPriN3-3" target="XBvXJC9JR48eEQxPriN3-10">
          <mxGeometry width="50" height="50" relative="1" as="geometry">
            <mxPoint x="-161" y="395" as="sourcePoint" />
            <mxPoint x="-161" y="280" as="targetPoint" />
          </mxGeometry>
        </mxCell>
        <mxCell id="XBvXJC9JR48eEQxPriN3-26" value="images" style="whiteSpace=wrap;html=1;" vertex="1" parent="1">
          <mxGeometry x="332.5" y="15" width="120" height="60" as="geometry" />
        </mxCell>
        <mxCell id="XBvXJC9JR48eEQxPriN3-27" value="" style="endArrow=none;html=1;exitX=0;exitY=1;exitDx=0;exitDy=0;entryX=0.5;entryY=0;entryDx=0;entryDy=0;" edge="1" parent="1" source="XBvXJC9JR48eEQxPriN3-26" target="1ccOX2XHWjZUAYnH3V1m-51">
          <mxGeometry width="50" height="50" relative="1" as="geometry">
            <mxPoint x="220" y="-100" as="sourcePoint" />
            <mxPoint x="245" y="25" as="targetPoint" />
          </mxGeometry>
        </mxCell>
        <mxCell id="XBvXJC9JR48eEQxPriN3-28" value="id" style="ellipse;whiteSpace=wrap;html=1;" vertex="1" parent="1">
          <mxGeometry x="442.5" y="-65" width="80" height="50" as="geometry" />
        </mxCell>
        <mxCell id="XBvXJC9JR48eEQxPriN3-29" value="name" style="ellipse;whiteSpace=wrap;html=1;" vertex="1" parent="1">
          <mxGeometry x="492.5" y="45" width="80" height="50" as="geometry" />
        </mxCell>
        <mxCell id="XBvXJC9JR48eEQxPriN3-30" value="image" style="ellipse;whiteSpace=wrap;html=1;" vertex="1" parent="1">
          <mxGeometry x="315" y="-65" width="80" height="50" as="geometry" />
        </mxCell>
        <mxCell id="XBvXJC9JR48eEQxPriN3-31" value="" style="endArrow=none;html=1;exitX=0;exitY=1;exitDx=0;exitDy=0;" edge="1" parent="1" source="XBvXJC9JR48eEQxPriN3-28" target="XBvXJC9JR48eEQxPriN3-26">
          <mxGeometry width="50" height="50" relative="1" as="geometry">
            <mxPoint x="532.5" y="15" as="sourcePoint" />
            <mxPoint x="462.5" y="32.5" as="targetPoint" />
          </mxGeometry>
        </mxCell>
        <mxCell id="XBvXJC9JR48eEQxPriN3-32" value="" style="endArrow=none;html=1;exitX=0;exitY=0.5;exitDx=0;exitDy=0;entryX=1;entryY=0.5;entryDx=0;entryDy=0;" edge="1" parent="1" source="XBvXJC9JR48eEQxPriN3-29" target="XBvXJC9JR48eEQxPriN3-26">
          <mxGeometry width="50" height="50" relative="1" as="geometry">
            <mxPoint x="542.5" y="25" as="sourcePoint" />
            <mxPoint x="472.5" y="42.5" as="targetPoint" />
          </mxGeometry>
        </mxCell>
        <mxCell id="XBvXJC9JR48eEQxPriN3-33" value="" style="endArrow=none;html=1;exitX=0.5;exitY=1;exitDx=0;exitDy=0;entryX=0.25;entryY=0;entryDx=0;entryDy=0;" edge="1" parent="1" source="XBvXJC9JR48eEQxPriN3-30" target="XBvXJC9JR48eEQxPriN3-26">
          <mxGeometry width="50" height="50" relative="1" as="geometry">
            <mxPoint x="520" y="-150" as="sourcePoint" />
            <mxPoint x="360" y="-110" as="targetPoint" />
          </mxGeometry>
        </mxCell>
        <mxCell id="XBvXJC9JR48eEQxPriN3-34" value="images" style="whiteSpace=wrap;html=1;" vertex="1" parent="1">
          <mxGeometry x="60" y="75" width="120" height="60" as="geometry" />
        </mxCell>
        <mxCell id="XBvXJC9JR48eEQxPriN3-35" value="parent_id" style="ellipse;whiteSpace=wrap;html=1;" vertex="1" parent="1">
          <mxGeometry x="50" y="-35" width="80" height="50" as="geometry" />
        </mxCell>
        <mxCell id="XBvXJC9JR48eEQxPriN3-36" value="" style="endArrow=none;html=1;exitX=1;exitY=1;exitDx=0;exitDy=0;entryX=0;entryY=0;entryDx=0;entryDy=0;" edge="1" parent="1" source="XBvXJC9JR48eEQxPriN3-34" target="1ccOX2XHWjZUAYnH3V1m-51">
          <mxGeometry width="50" height="50" relative="1" as="geometry">
            <mxPoint x="342.5" y="85" as="sourcePoint" />
            <mxPoint x="290" y="195" as="targetPoint" />
          </mxGeometry>
        </mxCell>
        <mxCell id="XBvXJC9JR48eEQxPriN3-37" value="name" style="ellipse;whiteSpace=wrap;html=1;" vertex="1" parent="1">
          <mxGeometry x="-40" y="5" width="80" height="50" as="geometry" />
        </mxCell>
        <mxCell id="XBvXJC9JR48eEQxPriN3-38" value="content" style="ellipse;whiteSpace=wrap;html=1;" vertex="1" parent="1">
          <mxGeometry x="-60" y="125" width="80" height="50" as="geometry" />
        </mxCell>
        <mxCell id="XBvXJC9JR48eEQxPriN3-39" value="submit_date" style="ellipse;whiteSpace=wrap;html=1;" vertex="1" parent="1">
          <mxGeometry x="40" y="175" width="80" height="50" as="geometry" />
        </mxCell>
        <mxCell id="XBvXJC9JR48eEQxPriN3-40" value="page_id" style="ellipse;whiteSpace=wrap;html=1;" vertex="1" parent="1">
          <mxGeometry x="150" y="-35" width="80" height="50" as="geometry" />
        </mxCell>
        <mxCell id="XBvXJC9JR48eEQxPriN3-41" value="id" style="ellipse;whiteSpace=wrap;html=1;" vertex="1" parent="1">
          <mxGeometry x="210" y="15" width="80" height="50" as="geometry" />
        </mxCell>
        <mxCell id="XBvXJC9JR48eEQxPriN3-46" value="" style="endArrow=none;html=1;exitX=0.5;exitY=1;exitDx=0;exitDy=0;entryX=0.5;entryY=0;entryDx=0;entryDy=0;" edge="1" parent="1" source="XBvXJC9JR48eEQxPriN3-34" target="XBvXJC9JR48eEQxPriN3-39">
          <mxGeometry width="50" height="50" relative="1" as="geometry">
            <mxPoint x="170" y="-185" as="sourcePoint" />
            <mxPoint x="117.5" y="-75" as="targetPoint" />
          </mxGeometry>
        </mxCell>
        <mxCell id="XBvXJC9JR48eEQxPriN3-47" value="" style="endArrow=none;html=1;exitX=1;exitY=0.5;exitDx=0;exitDy=0;entryX=0;entryY=0.75;entryDx=0;entryDy=0;" edge="1" parent="1" source="XBvXJC9JR48eEQxPriN3-38" target="XBvXJC9JR48eEQxPriN3-34">
          <mxGeometry width="50" height="50" relative="1" as="geometry">
            <mxPoint x="180" y="-175" as="sourcePoint" />
            <mxPoint x="127.5" y="-65" as="targetPoint" />
          </mxGeometry>
        </mxCell>
        <mxCell id="XBvXJC9JR48eEQxPriN3-48" value="" style="endArrow=none;html=1;exitX=1;exitY=1;exitDx=0;exitDy=0;entryX=0;entryY=0;entryDx=0;entryDy=0;" edge="1" parent="1" source="XBvXJC9JR48eEQxPriN3-37" target="XBvXJC9JR48eEQxPriN3-34">
          <mxGeometry width="50" height="50" relative="1" as="geometry">
            <mxPoint x="190" y="-165" as="sourcePoint" />
            <mxPoint x="137.5" y="-55" as="targetPoint" />
          </mxGeometry>
        </mxCell>
        <mxCell id="XBvXJC9JR48eEQxPriN3-49" value="" style="endArrow=none;html=1;exitX=0.5;exitY=1;exitDx=0;exitDy=0;entryX=0.5;entryY=0;entryDx=0;entryDy=0;" edge="1" parent="1" source="XBvXJC9JR48eEQxPriN3-35" target="XBvXJC9JR48eEQxPriN3-34">
          <mxGeometry width="50" height="50" relative="1" as="geometry">
            <mxPoint x="200" y="-155" as="sourcePoint" />
            <mxPoint x="147.5" y="-45" as="targetPoint" />
          </mxGeometry>
        </mxCell>
        <mxCell id="XBvXJC9JR48eEQxPriN3-50" value="" style="endArrow=none;html=1;exitX=0.5;exitY=1;exitDx=0;exitDy=0;entryX=1;entryY=0;entryDx=0;entryDy=0;" edge="1" parent="1" source="XBvXJC9JR48eEQxPriN3-40" target="XBvXJC9JR48eEQxPriN3-34">
          <mxGeometry width="50" height="50" relative="1" as="geometry">
            <mxPoint x="210" y="-145" as="sourcePoint" />
            <mxPoint x="157.5" y="-35" as="targetPoint" />
          </mxGeometry>
        </mxCell>
        <mxCell id="XBvXJC9JR48eEQxPriN3-51" value="" style="endArrow=none;html=1;exitX=0;exitY=1;exitDx=0;exitDy=0;entryX=1;entryY=0.5;entryDx=0;entryDy=0;" edge="1" parent="1" source="XBvXJC9JR48eEQxPriN3-41" target="XBvXJC9JR48eEQxPriN3-34">
          <mxGeometry width="50" height="50" relative="1" as="geometry">
            <mxPoint x="220" y="-135" as="sourcePoint" />
            <mxPoint x="167.5" y="-25" as="targetPoint" />
          </mxGeometry>
        </mxCell>
      </root>
    </mxGraphModel>
  </diagram>
</mxfile>
